<svg xmlns="http://www.w3.org/2000/svg" height="24px" viewBox="0 0 24 24" width="24px" fill="#000000"><path d="M0 0h24v24H0V0z" fill="none"/><path d="M271.521,0h-46.318c-21.206,0-38.458,17.253-38.458,38.459v28.662H141.36l2.68-2.68c2.929-2.93,2.929-7.678,0-10.607L115.756,25.55c-1.406-1.406-3.314-2.196-5.303-2.196s-3.897,0.79-5.303,2.196L83.061,47.639c-0.002,0.002-0.005,0.004-0.007,0.006s-0.004,0.004-0.006,0.007L59.637,71.063c-0.001,0.001-0.002,0.002-0.003,0.003s-0.002,0.002-0.003,0.003L35.245,95.455c-2.929,2.93-2.929,7.678,0,10.607l28.284,28.284c1.406,1.406,3.314,2.196,5.303,2.196s3.897-0.79,5.303-2.196l47.802-47.802c0.003-0.003,0.006-0.005,0.009-0.008s0.005-0.006,0.008-0.009l4.407-4.407h67.883c4.142,0,7.5-3.357,7.5-7.5V38.459c0-12.936,10.523-23.459,23.458-23.459h46.318c12.936,0,23.459,10.523,23.459,23.459v262.806c0,14.757-12.005,26.763-26.762,26.763H123.579c-14.757,0-26.762-12.006-26.762-26.763V144.512c0-4.143-3.358-7.5-7.5-7.5s-7.5,3.357-7.5,7.5v156.753c0,23.028,18.734,41.763,41.762,41.763h144.638c23.028,0,41.762-18.734,41.762-41.763V38.459C309.98,17.253,292.727,0,271.521,0z M93.222,94.047L75.544,76.369l12.814-12.814l17.678,17.678L93.222,94.047z M110.453,41.46l17.678,17.678l-11.488,11.488L98.964,52.948L110.453,41.46z M68.832,118.437l-17.678-17.678l13.783-13.783l17.678,17.678L68.832,118.437z"/><path d="M237.553,47.917h21.617c3.832,0,6.949,3.117,6.949,6.948c0,4.143,3.358,7.5,7.5,7.5s7.5-3.357,7.5-7.5c0-12.103-9.846-21.948-21.949-21.948h-21.617c-12.103,0-21.949,9.846-21.949,21.948v21.504c0,4.143,3.358,7.5,7.5,7.5h50.514c4.142,0,7.5-3.357,7.5-7.5s-3.358-7.5-7.5-7.5h-43.014V54.865C230.605,51.034,233.722,47.917,237.553,47.917z"/><path d="M119.805,304.796c1.337,0.981,2.892,1.455,4.433,1.455c2.306,0,4.582-1.061,6.051-3.063l65.205-88.814l65.205,88.814c1.469,2.002,3.745,3.063,6.051,3.063c1.541,0,3.096-0.474,4.433-1.455c3.339-2.451,4.059-7.146,1.607-10.484l-67.991-92.61l67.991-92.61c2.452-3.339,1.732-8.033-1.607-10.484c-3.339-2.449-8.033-1.732-10.484,1.607l-65.205,88.814l-65.205-88.814c-2.451-3.34-7.146-4.058-10.484-1.607c-3.339,2.451-4.059,7.146-1.607,10.484l67.991,92.61l-67.991,92.61C115.747,297.65,116.466,302.345,119.805,304.796z"/></svg>