<svg width="512px" height="512px" viewBox="0 0 512 512" data-name="Layer 1" id="Layer_1" xmlns="http://www.w3.org/2000/svg"><title/><path d="M256,62.24c-106.82,0-193.72,86.56-193.72,192.94s86.9,193,193.72,193,193.72-86.56,193.72-192.95S362.82,62.24,256,62.24Zm0,369.89c-98,0-177.72-79.38-177.72-176.95S158,78.24,256,78.24s177.72,79.38,177.72,176.94S354,432.13,256,432.13Zm127.58-103.6h0v0h0a8,8,0,0,1-10.9,2.91l-20-11.51a8,8,0,0,1,8-13.87l12.91,7.41A130.31,130.31,0,0,0,387,263.19H372.18a8,8,0,0,1,0-16H387a129.36,129.36,0,0,0-13.56-50.32l-12.87,7.4a7.91,7.91,0,0,1-4,1.07,8,8,0,0,1-4-14.94l12.8-7.35a131.91,131.91,0,0,0-37-36.83L321,159a8,8,0,0,1-13.84-8l7.39-12.75A130.71,130.71,0,0,0,264,124.73v14.76a8,8,0,0,1-16,0V124.73a130.71,130.71,0,0,0-50.56,13.5L204.83,151A8,8,0,1,1,191,159l-7.41-12.78a132,132,0,0,0-37,36.82l12.8,7.36a8,8,0,1,1-8,13.87l-12.88-7.4A129.36,129.36,0,0,0,125,247.18h14.86a8,8,0,0,1,0,16H125a130.31,130.31,0,0,0,13.53,50.33l12.9-7.41a8,8,0,1,1,8,13.87l-20,11.51a8,8,0,0,1-10.89-2.91h0l0,0h0a146.26,146.26,0,0,1-19.71-72.94c0-.14,0-.27,0-.41s0-.24,0-.36A145.42,145.42,0,0,1,128,182.59a7.54,7.54,0,0,1,.38-.75,7.25,7.25,0,0,1,.53-.79,148.09,148.09,0,0,1,52.63-52.42,7.52,7.52,0,0,1,.75-.5,8.52,8.52,0,0,1,.8-.4,146.86,146.86,0,0,1,72.51-19.25h.72a146.86,146.86,0,0,1,72.51,19.25,8.52,8.52,0,0,1,.8.4,7.52,7.52,0,0,1,.75.5,148,148,0,0,1,52.63,52.42,7.25,7.25,0,0,1,.53.79c.14.25.27.5.38.75a145.42,145.42,0,0,1,19.33,72.23c0,.12,0,.24,0,.37s0,.26,0,.4a146.26,146.26,0,0,1-19.7,72.92Zm-96.33-73.37a31.24,31.24,0,0,0-39.42-30l-27.56-47.54a8,8,0,1,0-13.84,8L234,233.15a31.09,31.09,0,0,0,22,53.14,31.5,31.5,0,0,0,8.15-1.08l5.28,9.12a8,8,0,0,0,13.84-8L278,277.22A31.13,31.13,0,0,0,287.25,255.16Zm-46.43,0a15.16,15.16,0,0,1,7.59-13.08h0a15.1,15.1,0,1,1-7.6,13.08Zm61.61,84.5H209.57a8,8,0,0,0-8,8v46.23a8,8,0,0,0,8,8h92.86a8,8,0,0,0,8-8V347.66A8,8,0,0,0,302.43,339.66Zm-8,46.23H217.57V355.66h76.86Z"/></svg>